<svg width="26" height="23" viewBox="0 0 26 23" fill="none" xmlns="http://www.w3.org/2000/svg">
<path d="M25.9184 10.606L22.9184 3.606C22.8414 3.42608 22.7132 3.27273 22.5499 3.165C22.3865 3.05727 22.1951 2.99989 21.9994 3H18.9994V1C18.9994 0.734784 18.894 0.48043 18.7065 0.292893C18.5189 0.105357 18.2646 0 17.9994 0H1.99936V2H16.9994V14.556C16.5437 14.8206 16.1449 15.1728 15.826 15.5922C15.5071 16.0117 15.2744 16.4902 15.1414 17H8.85736C8.61396 16.0573 8.03513 15.2358 7.22935 14.6894C6.42357 14.143 5.44617 13.9092 4.48036 14.0319C3.51454 14.1546 2.62662 14.6253 1.98304 15.3558C1.33945 16.0863 0.984375 17.0264 0.984375 18C0.984375 18.9736 1.33945 19.9137 1.98304 20.6442C2.62662 21.3747 3.51454 21.8454 4.48036 21.9681C5.44617 22.0908 6.42357 21.857 7.22935 21.3106C8.03513 20.7642 8.61396 19.9427 8.85736 19H15.1414C15.3589 19.8582 15.8564 20.6194 16.5551 21.1632C17.2539 21.7069 18.114 22.0021 18.9994 22.0021C19.8847 22.0021 20.7448 21.7069 21.4436 21.1632C22.1423 20.6194 22.6398 19.8582 22.8574 19H24.9994C25.2646 19 25.5189 18.8946 25.7065 18.7071C25.894 18.5196 25.9994 18.2652 25.9994 18V11C25.9994 10.8645 25.9718 10.7305 25.9184 10.606ZM4.99936 20C4.6038 20 4.21712 19.8827 3.88822 19.6629C3.55932 19.4432 3.30297 19.1308 3.1516 18.7654C3.00022 18.3999 2.96062 17.9978 3.03779 17.6098C3.11496 17.2219 3.30544 16.8655 3.58514 16.5858C3.86485 16.3061 4.22122 16.1156 4.60918 16.0384C4.99714 15.9613 5.39927 16.0009 5.76472 16.1522C6.13018 16.3036 6.44253 16.56 6.6623 16.8889C6.88206 17.2178 6.99936 17.6044 6.99936 18C6.99883 18.5303 6.78794 19.0387 6.41299 19.4136C6.03803 19.7886 5.52963 19.9995 4.99936 20ZM18.9994 5H21.3394L23.4834 10H18.9994V5ZM18.9994 20C18.6038 20 18.2171 19.8827 17.8882 19.6629C17.5593 19.4432 17.303 19.1308 17.1516 18.7654C17.0002 18.3999 16.9606 17.9978 17.0378 17.6098C17.115 17.2219 17.3054 16.8655 17.5851 16.5858C17.8648 16.3061 18.2212 16.1156 18.6092 16.0384C18.9971 15.9613 19.3993 16.0009 19.7647 16.1522C20.1302 16.3036 20.4425 16.56 20.6623 16.8889C20.8821 17.2178 20.9994 17.6044 20.9994 18C20.9988 18.5303 20.7879 19.0387 20.413 19.4136C20.038 19.7886 19.5296 19.9995 18.9994 20ZM23.9994 17H22.8574C22.6371 16.1434 22.1388 15.3842 21.4406 14.8413C20.7424 14.2983 19.8838 14.0025 18.9994 14V12H23.9994V17Z" fill="black"/>
</svg>
