<svg width="81" height="65" viewBox="0 0 81 65" fill="none" xmlns="http://www.w3.org/2000/svg">
<path d="M8.10001 65C5.87251 65 3.96496 64.2037 2.37736 62.6112C0.789756 61.0187 -0.00269312 59.1067 6.87606e-06 56.875V8.125C6.87606e-06 5.89063 0.793807 3.97719 2.38141 2.38469C3.96901 0.792194 5.87521 -0.00270144 8.10001 6.89728e-06H72.9C75.1275 6.89728e-06 77.035 0.796256 78.6226 2.38876C80.2102 3.98126 81.0027 5.89334 81 8.125V56.875C81 59.1094 80.2062 61.0228 78.6186 62.6153C77.031 64.2078 75.1248 65.0027 72.9 65H8.10001ZM8.10001 56.875H72.9V16.25H8.10001V56.875ZM36.2475 39.2031L50.3213 25.0859C51.1312 24.2734 52.11 23.8672 53.2575 23.8672C54.405 23.8672 55.3837 24.2734 56.1937 25.0859C57.0037 25.8984 57.4087 26.8802 57.4087 28.0312C57.4087 29.1823 57.0037 30.1641 56.1937 30.9766L39.0825 48.1406C38.2725 48.9531 37.3275 49.3594 36.2475 49.3594C35.1675 49.3594 34.2225 48.9531 33.4125 48.1406L24.8063 39.5078C23.9963 38.6953 23.5913 37.7135 23.5913 36.5625C23.5913 35.4115 23.9963 34.4297 24.8063 33.6172C25.6163 32.8047 26.595 32.3984 27.7425 32.3984C28.89 32.3984 29.8688 32.8047 30.6788 33.6172L36.2475 39.2031Z" fill="#A2232E"/>
</svg>
