<svg width="65" height="65" viewBox="0 0 65 65" fill="none" xmlns="http://www.w3.org/2000/svg">
<path d="M60.9375 6.08089L44.6733 6.08096V2.03173C44.6733 0.909197 43.7643 0 42.642 0C41.5198 0 40.6108 0.909197 40.6108 2.03173V6.07994H24.3608V2.03173C24.3608 0.909197 23.4518 0 22.3295 0C21.2073 0 20.2983 0.909197 20.2983 2.03173V6.07994H4.0625C1.81898 6.07994 0 7.89935 0 10.1434V60.9365C0 63.1805 1.81898 65 4.0625 65H60.9375C63.181 65 65 63.1805 65 60.9365V10.1434C65 7.9003 63.181 6.08089 60.9375 6.08089ZM60.9375 60.9365H4.0625V10.1434H20.2983V12.1904C20.2983 13.3128 21.2073 14.2221 22.3295 14.2221C23.4518 14.2221 24.3608 13.3128 24.3608 12.1904V10.1444H40.6108V12.1914C40.6108 13.3139 41.5198 14.2231 42.642 14.2231C43.7643 14.2231 44.6733 13.3139 44.6733 12.1914V10.1444H60.9375V60.9365ZM46.7188 32.4933H50.7812C51.9025 32.4933 52.8125 31.5831 52.8125 30.4616V26.3982C52.8125 25.2766 51.9025 24.3664 50.7812 24.3664H46.7188C45.5975 24.3664 44.6875 25.2766 44.6875 26.3982V30.4616C44.6875 31.5831 45.5975 32.4933 46.7188 32.4933ZM46.7188 48.7461H50.7812C51.9025 48.7461 52.8125 47.8369 52.8125 46.7144V42.6509C52.8125 41.5294 51.9025 40.6192 50.7812 40.6192H46.7188C45.5975 40.6192 44.6875 41.5294 44.6875 42.6509V46.7144C44.6875 47.8379 45.5975 48.7461 46.7188 48.7461ZM34.5312 40.6192H30.4688C29.3475 40.6192 28.4375 41.5294 28.4375 42.6509V46.7144C28.4375 47.8369 29.3475 48.7461 30.4688 48.7461H34.5312C35.6525 48.7461 36.5625 47.8369 36.5625 46.7144V42.6509C36.5625 41.5305 35.6525 40.6192 34.5312 40.6192ZM34.5312 24.3664H30.4688C29.3475 24.3664 28.4375 25.2766 28.4375 26.3982V30.4616C28.4375 31.5831 29.3475 32.4933 30.4688 32.4933H34.5312C35.6525 32.4933 36.5625 31.5831 36.5625 30.4616V26.3982C36.5625 25.2756 35.6525 24.3664 34.5312 24.3664ZM18.2812 24.3664H14.2188C13.0975 24.3664 12.1875 25.2766 12.1875 26.3982V30.4616C12.1875 31.5831 13.0975 32.4933 14.2188 32.4933H18.2812C19.4025 32.4933 20.3125 31.5831 20.3125 30.4616V26.3982C20.3125 25.2756 19.4025 24.3664 18.2812 24.3664ZM18.2812 40.6192H14.2188C13.0975 40.6192 12.1875 41.5294 12.1875 42.6509V46.7144C12.1875 47.8369 13.0975 48.7461 14.2188 48.7461H18.2812C19.4025 48.7461 20.3125 47.8369 20.3125 46.7144V42.6509C20.3125 41.5305 19.4025 40.6192 18.2812 40.6192Z" fill="#A2232E"/>
</svg>
