<svg width="45" height="45" viewBox="0 0 45 45" fill="none" xmlns="http://www.w3.org/2000/svg">
<path d="M38.3081 26.7188H20.2904L23.8201 23.0765L21.8911 21.0938L15.0508 28.125L21.8911 35.1563L23.8201 33.1735L20.2904 29.5313H38.3081V26.7188Z" fill="#A2232E"/>
<path d="M32.8342 19.6875V14.0625C32.8353 13.8775 32.8008 13.694 32.7327 13.5227C32.6647 13.3513 32.5643 13.1955 32.4375 13.0641L22.861 3.22034C22.7332 3.09001 22.5815 2.9869 22.4148 2.91691C22.2482 2.84693 22.0697 2.81146 21.8897 2.81252H8.20882C7.48314 2.81252 6.78719 3.10885 6.27406 3.6363C5.76094 4.16374 5.47266 4.87912 5.47266 5.62502V39.375C5.47266 40.1209 5.76094 40.8364 6.27406 41.3638C6.78719 41.8911 7.48314 42.1875 8.20882 42.1875H30.098C30.8238 42.1875 31.5197 41.8911 32.0328 41.3638C32.546 40.8364 32.8342 40.1209 32.8342 39.375V36.5625H30.098V39.375H8.20882V5.62502H19.1535V14.0625C19.1535 14.8084 19.4417 15.5238 19.9548 16.0513C20.468 16.5787 21.164 16.875 21.8897 16.875H30.098V19.6875H32.8342ZM21.8897 14.0625V6.20159L29.5372 14.0625H21.8897Z" fill="#A2232E"/>
</svg>
