<svg width="44" height="32" viewBox="0 0 44 32" fill="none" xmlns="http://www.w3.org/2000/svg">
<path d="M44 0H0V8.24277H44V0Z" fill="#0B73B9"/>
<path d="M44 23.7572H0V32H44V23.7572Z" fill="#0B73B9"/>
<path d="M44 9.01965H0V22.9104H44V9.01965Z" fill="#0B73B9"/>
<path d="M16.6106 4.77794H15.9842V4.02436H14.4841V4.77794H3.5034L4.67106 1.95007H2.93117C2.93117 2.0433 0.704102 4.87894 0.704102 4.87894L2.21201 6.39387H18.8222V3.82237H16.6106V4.77794Z" fill="white"/>
<path d="M6.4652 2.34619H5.2666V3.55037H6.4652V2.34619Z" fill="white"/>
<path d="M8.17418 2.34619H6.97559V3.55037H8.17418V2.34619Z" fill="white"/>
<path d="M18.4427 2.34619H17.2441V3.55037H18.4427V2.34619Z" fill="white"/>
<path d="M36.1291 6.13745H35.2012V7.06972H36.1291V6.13745Z" fill="white"/>
<path d="M38.1936 6.13745H37.2656V7.06972H38.1936V6.13745Z" fill="white"/>
<path d="M23.1995 4.24182H19.9053V5.44599H23.1995V4.24182Z" fill="white"/>
<path d="M41.8201 3.4261H37.9304L37.7217 2.9755H41.3716L40.1884 1.78687H34.3037L36.4844 3.97769H40.4127V4.56812H36.2833L35.0074 3.28626H32.5406V5.76453H28.0478L28.0246 5.0731C28.0246 5.0731 31.7287 5.10418 31.6977 5.10418V3.06873H25.2949V7.10078H33.8862V5.04979L34.4816 5.80337H41.6654L43.2507 4.53705L41.8201 3.4261Z" fill="white"/>
<path d="M37.9141 21.0537L29.9725 15.0405L37.28 10.2316C37.3574 10.2316 23.5929 10.1928 23.5929 10.1928L16.3704 14.7997V10.0219H5.86914V21.1313H16.3626V15.8485L23.3067 21.0537H37.9141Z" fill="#F9ED1F"/>
<path d="M9.11697 25.9325C9.44949 26.1889 9.61961 26.6162 9.61961 27.2066V30.3996H8.25863V27.5174C8.25863 27.2688 8.21996 27.0745 8.15037 26.9425C8.01891 26.7016 7.77145 26.5773 7.40801 26.5773C6.9595 26.5773 6.65019 26.756 6.4878 27.1134C6.40274 27.2998 6.35634 27.5407 6.35634 27.8359V30.3996H5.01855V25.6684H6.30994V26.3598C6.48007 26.119 6.64246 25.9403 6.79711 25.8315C7.06776 25.6373 7.41574 25.5441 7.83332 25.5441C8.35915 25.5518 8.78446 25.6761 9.11697 25.9325Z" fill="white"/>
<path d="M22.9123 25.7616C23.2525 25.9092 23.5386 26.1422 23.7629 26.4608C23.964 26.7404 24.0954 27.0667 24.1573 27.4396C24.1882 27.6572 24.2037 27.9679 24.1959 28.3797H20.6156C20.6388 28.8536 20.8089 29.1876 21.1337 29.3818C21.327 29.4984 21.5668 29.5605 21.8451 29.5605C22.139 29.5605 22.3787 29.4906 22.5566 29.343C22.6571 29.2653 22.7422 29.1565 22.8195 29.0167H24.1341C24.1031 29.2964 23.9408 29.5838 23.6546 29.8713C23.2139 30.3296 22.5952 30.5627 21.8065 30.5627C21.1492 30.5627 20.5769 30.3685 20.0743 29.98C19.5717 29.5916 19.3242 28.9623 19.3242 28.0844C19.3242 27.2609 19.5485 26.6317 20.0047 26.1966C20.4532 25.7616 21.0409 25.5363 21.7601 25.5363C22.1854 25.544 22.5643 25.6139 22.9123 25.7616ZM20.9868 26.8337C20.8012 27.0123 20.6929 27.2609 20.6465 27.5639H22.8659C22.8427 27.2376 22.7267 26.989 22.5256 26.8181C22.3168 26.6472 22.0694 26.5617 21.7601 26.5617C21.4276 26.5617 21.1646 26.655 20.9868 26.8337Z" fill="white"/>
<path d="M35.9883 26.5851V25.6995H36.6456V24.6351L37.8674 24.0913V25.6917H38.6329V26.5773H37.8674V29.0867C37.8674 29.2809 37.8906 29.4052 37.9447 29.4518C37.9911 29.4984 38.1457 29.5217 38.3932 29.5217C38.4319 29.5217 38.4705 29.5217 38.5092 29.5217C38.5479 29.5217 38.5943 29.5217 38.6329 29.514V30.4385L38.0452 30.4618C37.4653 30.4851 37.0631 30.3841 36.8466 30.1588C36.7074 30.0189 36.6378 29.8014 36.6378 29.4984V26.5773H35.9883V26.5851Z" fill="white"/>
</svg>
