<svg width="80" height="80" viewBox="0 0 80 80" fill="none" xmlns="http://www.w3.org/2000/svg">
<path d="M39.9997 13.3334C47.333 13.3334 53.333 19.3334 53.333 26.6667C53.333 33.6667 46.333 45 39.9997 53C33.6663 44.6667 26.6663 33.6667 26.6663 26.6667C26.6663 19.3334 32.6663 13.3334 39.9997 13.3334ZM39.9997 6.66669C28.9997 6.66669 19.9997 15.6667 19.9997 26.6667C19.9997 41.6667 39.9997 63.3334 39.9997 63.3334C39.9997 63.3334 59.9997 41.3334 59.9997 26.6667C59.9997 15.6667 50.9997 6.66669 39.9997 6.66669ZM39.9997 20C36.333 20 33.333 23 33.333 26.6667C33.333 30.3334 36.333 33.3334 39.9997 33.3334C43.6663 33.3334 46.6663 30.3334 46.6663 26.6667C46.6663 23 43.6663 20 39.9997 20ZM66.6663 63.3334C66.6663 70.6667 54.6663 76.6667 39.9997 76.6667C25.333 76.6667 13.333 70.6667 13.333 63.3334C13.333 59 17.333 55.3334 23.6663 52.6667L25.6663 55.6667C22.333 57.3334 19.9997 59.3334 19.9997 61.6667C19.9997 66.3334 28.9997 70 39.9997 70C50.9997 70 59.9997 66.3334 59.9997 61.6667C59.9997 59.3334 57.6663 57.3334 53.9997 55.6667L55.9997 52.6667C62.6663 55.3334 66.6663 59 66.6663 63.3334Z" fill="#A2232E"/>
</svg>
