<svg width="214" height="135" viewBox="0 0 214 135" fill="none" xmlns="http://www.w3.org/2000/svg">
<g clip-path="url(#clip0_128_1575)">
<path d="M39.2402 94.7292H35.248V129.303L185.356 132.467V97.8331L39.2402 94.7292Z" fill="#03036D"/>
<path d="M39.2402 61.9419L179.956 60.4341L180.437 96.2649H39.2402V61.9419Z" fill="#A2232E"/>
<path d="M169.336 57.9148C174.546 56.9405 179.756 55.9662 185.184 54.9502C184.762 59.019 184.35 62.9858 183.938 66.9526C183.892 66.9526 183.841 66.9572 183.794 66.9618C183.327 64.7256 182.836 62.4894 182.405 60.2439C182.289 59.6454 182.081 59.3809 181.437 59.3206C177.695 58.968 173.958 58.569 170.22 58.1839C169.924 58.1514 169.627 58.1004 169.331 58.054C169.331 58.0076 169.336 57.9612 169.34 57.9148H169.336Z" fill="#A2232E"/>
<path d="M32.4831 123.684C32.4831 125.498 32.5618 127.554 32.446 129.6C32.3951 130.49 32.6869 130.797 33.4371 131.056C36.7114 132.207 39.9718 133.399 43.2368 134.582C43.5008 134.675 43.7509 134.801 43.9778 135.005C38.9205 134.698 33.8678 134.388 28.6484 134.072C29.9822 130.472 31.2836 126.946 32.4877 123.689L32.4831 123.684Z" fill="#03036D"/>
<path d="M166.631 85.6312C167.673 81.8686 168.71 78.1013 169.753 74.3387C170.012 73.3969 170.29 72.4597 170.535 71.5133C170.72 70.8034 171.151 70.4462 171.86 70.6457C172.531 70.8359 172.582 71.4158 172.425 71.9818C171.614 74.8908 170.79 77.7905 169.966 80.6948C169.225 83.2929 168.479 85.891 167.743 88.4892C167.567 89.1201 167.391 89.7789 166.594 89.7929C165.802 89.8068 165.594 89.1758 165.413 88.5356C164.172 84.1976 162.912 79.8643 161.657 75.5311C161.62 75.4012 161.555 75.2805 161.439 74.9836C160.694 77.8137 159.999 80.4675 159.3 83.1259C158.804 85.0142 158.295 86.9025 157.809 88.7954C157.651 89.4078 157.359 89.8949 156.679 89.8996C156.026 89.8996 155.766 89.4171 155.59 88.851C153.9 83.3857 152.196 77.925 150.51 72.4644C150.218 71.5179 150.482 70.8962 151.181 70.8173C151.955 70.7292 152.223 71.272 152.409 71.8891C153.441 75.3316 154.479 78.7694 155.516 82.2073C155.863 83.3625 156.211 84.5178 156.618 85.8679C156.748 85.5152 156.831 85.3343 156.882 85.1441C158.031 80.899 159.179 76.6538 160.323 72.4087C160.472 71.8612 160.62 71.323 161.296 71.2488C161.995 71.1746 162.319 71.5828 162.505 72.2138C163.496 75.6053 164.505 78.9968 165.51 82.3836C165.83 83.4553 166.149 84.5224 166.469 85.5941C166.525 85.6034 166.58 85.6173 166.636 85.6266L166.631 85.6312Z" fill="white"/>
<path d="M59.548 80.5926C62.8733 81.938 63.1696 84.5269 62.7065 86.7445C62.1832 89.222 59.9185 90.9247 57.112 90.9897C55.0465 91.0407 52.9763 91.05 50.9108 91.0593C49.8271 91.0593 49.5724 90.818 49.5538 89.7602C49.4844 84.9305 49.4288 80.1008 49.3686 75.2711C49.3593 74.552 49.3223 73.8328 49.3223 73.1184C49.3223 72.3204 49.7298 71.8935 50.5449 71.8889C52.6429 71.8796 54.7408 71.8054 56.8341 71.8657C60.4928 71.977 62.8594 75.7629 61.1412 78.7461C60.7521 79.4234 60.113 79.9523 59.548 80.5972V80.5926ZM51.5777 81.887V88.9808C51.7074 89.0365 51.7583 89.0828 51.8046 89.0828C53.2681 89.0828 54.7269 89.0828 56.1904 89.055C56.8434 89.0411 57.5195 89.0272 58.1494 88.8741C59.8722 88.4565 60.8726 87.06 60.8355 85.2506C60.8031 83.5387 59.8213 82.0865 58.1679 81.938C55.9912 81.7432 53.7821 81.8916 51.5777 81.8916V81.887ZM51.448 73.8328C51.448 75.6933 51.4295 77.4192 51.4712 79.1404C51.4758 79.3724 51.8092 79.7807 51.9945 79.7853C53.6293 79.8178 55.2734 79.8503 56.9036 79.7296C58.6172 79.6044 59.6545 78.4167 59.687 76.7836C59.724 75.1597 58.7792 73.9859 57.0379 73.8607C55.19 73.7261 53.319 73.8282 51.4434 73.8282L51.448 73.8328Z" fill="white"/>
<path d="M138.927 70.7013C144.512 70.6132 148.722 74.7284 148.852 80.4072C148.977 85.8771 144.795 90.2522 139.339 90.3496C133.425 90.4563 129.183 86.4431 129.081 80.6438C128.979 74.979 133.124 70.7941 138.927 70.7013ZM138.959 88.4103C143.428 88.4056 146.814 85.0281 146.823 80.5649C146.832 76.0553 143.433 72.6407 138.936 72.6453C134.481 72.6499 131.049 76.0692 131.058 80.4907C131.072 85.0049 134.467 88.4149 138.955 88.4057L138.959 88.4103Z" fill="white"/>
<path d="M123.126 86.4431C123.126 82.2304 123.126 78.1755 123.126 74.1206C123.126 73.5731 123.112 73.0257 123.116 72.4829C123.121 71.5364 123.459 71.0817 124.154 71.1235C124.983 71.1745 125.163 71.7405 125.163 72.4457C125.163 73.8561 125.163 75.2665 125.182 76.6723C125.224 80.6994 125.275 84.7218 125.321 88.7489C125.325 89.3289 125.376 89.9366 124.677 90.1918C123.945 90.4563 123.575 89.9598 123.19 89.468C119.606 84.9028 116.012 80.3422 112.423 75.7815C112.251 75.5588 112.066 75.3454 111.742 74.9557C111.742 76.1202 111.733 77.076 111.742 78.0363C111.793 81.7154 111.853 85.3992 111.895 89.0783C111.904 89.9784 111.571 90.3867 110.885 90.3867C110.029 90.3867 109.853 89.8114 109.848 89.1108C109.788 83.5898 109.714 78.0642 109.69 72.5432C109.69 72.1395 109.982 71.5735 110.311 71.3694C110.844 71.04 111.325 71.4158 111.691 71.889C115.253 76.4357 118.819 80.9824 122.385 85.5245C122.607 85.8121 122.838 86.0905 123.126 86.4477V86.4431Z" fill="white"/>
<path d="M171.383 117.853C172.55 119.778 173.698 121.666 174.847 123.559C174.907 123.657 174.972 123.754 175.027 123.851C175.361 124.431 175.792 125.034 174.995 125.568C174.398 125.972 173.786 125.693 173.263 124.83C172.04 122.817 170.804 120.813 169.604 118.79C169.326 118.321 169.025 118.103 168.446 118.136C167.423 118.191 166.39 118.149 165.186 118.149C165.186 119.398 165.186 120.595 165.186 121.791C165.186 122.627 165.163 123.457 165.163 124.292C165.163 124.983 164.917 125.489 164.163 125.549C163.505 125.601 163.097 125.127 163.107 124.278C163.153 120.571 163.213 116.864 163.273 113.157C163.306 111.348 163.352 109.539 163.394 107.729C163.417 106.699 163.713 106.379 164.732 106.393C166.339 106.416 167.946 106.435 169.549 106.523C172.452 106.681 174.587 108.541 175.097 111.283C175.606 114.039 174.351 116.386 171.693 117.662C171.619 117.699 171.549 117.755 171.387 117.857L171.383 117.853ZM165.422 116.168C166.849 116.168 168.289 116.289 169.697 116.141C171.772 115.918 173.119 114.415 173.184 112.517C173.249 110.559 172.017 108.884 170.058 108.574C168.576 108.342 167.052 108.383 165.422 108.3V116.173V116.168Z" fill="white"/>
<path d="M148.398 108.179V114.786C150.302 114.786 152.191 114.786 154.076 114.786C154.622 114.786 155.169 114.809 155.711 114.8C156.415 114.79 156.924 115.055 156.901 115.825C156.878 116.544 156.373 116.781 155.715 116.771C153.534 116.739 151.353 116.707 149.171 116.674C148.917 116.674 148.662 116.674 148.236 116.674C148.236 117.532 148.241 118.354 148.236 119.175C148.227 120.27 148.236 121.36 148.18 122.45C148.143 123.123 148.38 123.346 149.056 123.346C152.038 123.364 155.025 123.425 158.008 123.471C158.124 123.471 158.239 123.471 158.351 123.471C159.249 123.513 159.694 123.861 159.643 124.505C159.582 125.294 159.036 125.471 158.364 125.457C154.636 125.382 150.904 125.317 147.175 125.229C146.37 125.211 146.092 124.812 146.11 123.805C146.161 120.873 146.231 117.941 146.282 115.008C146.323 112.536 146.337 110.063 146.365 107.59C146.379 106.407 146.689 106.101 147.838 106.119C151.367 106.17 154.9 106.226 158.429 106.277C158.601 106.277 158.772 106.282 158.943 106.295C159.545 106.342 159.953 106.662 159.939 107.265C159.93 107.901 159.513 108.258 158.865 108.249C157.457 108.235 156.054 108.184 154.646 108.174C152.612 108.161 150.579 108.174 148.398 108.174V108.179Z" fill="white"/>
<path d="M60.0249 123.824C58.9134 123.814 58.5151 123.081 58.8949 122.19C59.6405 120.446 60.4139 118.715 61.1827 116.98C62.7897 113.357 64.406 109.733 66.0177 106.11C66.1103 105.901 66.1613 105.637 66.3187 105.493C66.6105 105.224 66.9856 104.816 67.2959 104.843C67.6525 104.871 68.1342 105.238 68.2824 105.576C69.1808 107.632 69.9959 109.72 70.8388 111.793C72.2652 115.305 73.6824 118.827 75.1227 122.334C75.4006 123.007 75.4515 123.573 74.7337 123.953C74.1316 124.269 73.5434 123.935 73.2146 123.128C72.7932 122.088 72.4181 121.031 71.9549 120.015C71.8484 119.778 71.4779 119.513 71.2232 119.509C68.4676 119.425 65.712 119.407 62.9518 119.337C62.4516 119.323 62.2386 119.537 62.0673 119.95C61.6412 120.984 61.2151 122.023 60.7196 123.03C60.5436 123.392 60.1731 123.657 60.0203 123.824H60.0249ZM71.0518 117.625C69.7921 114.456 68.5695 111.385 67.2681 108.119C65.8463 111.376 64.5125 114.429 63.1185 117.625H71.0518Z" fill="white"/>
<path d="M121.023 120.237C119.676 120.237 118.323 120.265 116.976 120.223C116.494 120.209 116.248 120.353 116.072 120.794C115.665 121.805 115.202 122.793 114.785 123.805C114.512 124.478 114.109 124.891 113.34 124.635C112.724 124.431 112.553 123.763 112.914 122.951C114.577 119.193 116.248 115.445 117.92 111.687C118.666 110.007 119.412 108.328 120.153 106.643C120.384 106.119 120.69 105.544 121.315 105.715C121.723 105.827 122.186 106.268 122.352 106.671C124.622 112.169 126.849 117.681 129.082 123.192C129.434 124.065 129.276 124.649 128.665 124.867C128.012 125.099 127.53 124.812 127.178 123.953C126.766 122.942 126.344 121.935 125.974 120.91C125.821 120.478 125.585 120.353 125.154 120.362C123.774 120.386 122.399 120.372 121.019 120.372C121.019 120.325 121.019 120.279 121.019 120.232L121.023 120.237ZM121.245 109.01C119.828 112.262 118.499 115.31 117.105 118.516H124.974C124.964 118.446 124.964 118.33 124.923 118.228C123.728 115.222 122.528 112.215 121.245 109.01Z" fill="white"/>
<path d="M81.8799 78.904C81.8799 80.5742 81.8105 82.2444 81.8938 83.9054C82.1069 88.0902 79.0641 90.8739 74.9933 91.1801C73.2797 91.31 71.6125 91.0734 70.0657 90.2522C67.7547 89.0181 66.5691 87.0695 66.532 84.4621C66.4765 80.6949 66.4672 76.9276 66.4348 73.1603C66.4255 72.2185 66.7451 71.7406 67.4027 71.7221C68.0881 71.7035 68.4355 72.1396 68.4494 73.0907C68.5049 76.6863 68.6624 80.2819 68.5605 83.8729C68.4679 87.1391 70.6307 88.8696 73.1732 89.213C74.4746 89.3893 75.7621 89.2872 76.9662 88.7258C78.7955 87.8768 79.8283 86.471 79.8144 84.3972C79.7866 80.7737 79.7542 77.1503 79.7218 73.5268C79.7218 73.3273 79.731 73.1232 79.7218 72.9237C79.6755 72.1953 79.9024 71.6571 80.7082 71.5829C81.3473 71.5272 81.741 72.019 81.7456 72.8773C81.7595 74.8908 81.7456 76.9044 81.7456 78.9133C81.7873 78.9133 81.829 78.9133 81.8753 78.9133L81.8799 78.904Z" fill="white"/>
<path d="M48.4517 116.957C48.4517 118.785 48.4795 120.557 48.4285 122.329C48.4193 122.715 48.2433 123.216 47.9654 123.443C47.3217 123.963 46.4464 123.443 46.4417 122.543C46.4325 120.529 46.4742 118.52 46.5066 116.507C46.5622 112.944 46.6316 109.381 46.6733 105.817C46.6826 105.052 46.9002 104.458 47.7477 104.467C49.6697 104.481 51.6009 104.435 53.509 104.639C56.9454 105.006 59.0109 107.743 58.7793 111.394C58.5756 114.581 56.0654 116.915 52.7726 116.952C51.4018 116.971 50.0309 116.952 48.4471 116.952L48.4517 116.957ZM48.7064 115.013C49.9383 115.013 51.1656 115.013 52.3882 115.013C52.6754 115.013 52.9625 115.013 53.2497 114.98C55.3569 114.711 56.8296 112.944 56.8157 110.703C56.8018 108.532 55.3013 106.759 53.208 106.569C51.9251 106.453 50.633 106.486 49.3455 106.435C48.9287 106.416 48.7018 106.527 48.7018 107.001C48.711 109.613 48.7064 112.225 48.7064 115.018V115.013Z" fill="white"/>
<path d="M92.231 81.6227C94.1576 78.4725 96.0008 75.4615 97.844 72.4505C98.4461 71.4669 99.0065 71.1607 99.5715 71.5226C100.141 71.8891 100.132 72.4783 99.4974 73.4943C97.5569 76.6167 95.5979 79.7252 93.6806 82.8661C93.4305 83.279 93.2869 83.8219 93.2776 84.3044C93.2452 85.9978 93.2869 87.6958 93.3101 89.3892C93.3193 90.0573 93.0646 90.5584 92.3699 90.5955C91.6428 90.6373 91.2908 90.1872 91.2816 89.4542C91.2631 87.7608 91.2677 86.0627 91.1797 84.3693C91.1519 83.8265 90.9759 83.2326 90.6842 82.778C88.739 79.7252 86.743 76.7095 84.7654 73.6753C84.6867 73.5547 84.608 73.434 84.5339 73.3134C84.0754 72.5572 84.1124 71.9819 84.6867 71.6664C85.3721 71.2906 85.8214 71.6385 86.1872 72.2092C86.6642 72.9608 87.1505 73.7078 87.6275 74.4594C89.1327 76.7977 90.6332 79.1406 92.2264 81.6181L92.231 81.6227Z" fill="white"/>
<path d="M81.7737 115.148C83.7188 112.155 85.6268 109.223 87.5349 106.286C87.7201 105.999 87.8776 105.604 88.1509 105.479C88.5121 105.312 89.0632 105.191 89.3642 105.358C89.6051 105.493 89.7625 106.133 89.6653 106.458C89.5032 106.987 89.1095 107.451 88.7946 107.929C86.8958 110.805 84.9831 113.672 83.1028 116.558C82.8851 116.892 82.7508 117.342 82.7323 117.741C82.6536 119.462 82.6258 121.188 82.5934 122.909C82.5795 123.587 82.3942 124.116 81.6162 124.162C80.9447 124.199 80.5788 123.745 80.5834 122.882C80.5973 121.188 80.6529 119.49 80.6297 117.797C80.6251 117.337 80.4862 116.827 80.2546 116.437C78.328 113.241 76.3644 110.067 74.4146 106.885C74.2803 106.667 74.058 106.425 74.0719 106.207C74.0997 105.827 74.1784 105.252 74.4193 105.126C74.7388 104.964 75.2668 105.085 75.6512 105.228C75.8688 105.307 75.9939 105.669 76.1421 105.915C77.8927 108.815 79.6433 111.719 81.3939 114.619C81.4958 114.786 81.6162 114.939 81.769 115.152L81.7737 115.148Z" fill="white"/>
<path d="M136.866 107.896C136.866 109.441 136.885 111.018 136.866 112.591C136.815 116.298 136.746 120.001 136.676 123.707C136.658 124.649 136.306 125.081 135.616 125.053C134.93 125.025 134.597 124.57 134.615 123.629C134.712 118.544 134.814 113.463 134.916 108.379C134.916 108.212 134.916 108.045 134.916 107.646C133.175 107.646 131.494 107.646 129.813 107.646C129.581 107.646 129.354 107.655 129.123 107.636C128.544 107.595 128.201 107.279 128.219 106.699C128.238 106.128 128.576 105.818 129.174 105.827C131.267 105.845 133.365 105.845 135.458 105.878C137.524 105.906 139.589 105.961 141.65 105.999C141.821 105.999 141.993 105.994 142.169 105.999C143.276 106.022 143.697 106.295 143.683 106.973C143.669 107.622 143.164 107.905 142.122 107.896C140.437 107.882 138.751 107.896 136.866 107.896Z" fill="white"/>
<path d="M101.21 122.673C103.295 122.673 105.295 122.664 107.301 122.673C108.421 122.682 109.537 122.733 110.658 122.752C111.307 122.766 111.728 123.058 111.719 123.726C111.709 124.403 111.242 124.686 110.621 124.682C107.175 124.635 103.73 124.575 100.289 124.501C99.4413 124.482 99.1125 124.051 99.1264 123.039C99.1866 119.476 99.27 115.908 99.3394 112.345C99.3765 110.503 99.3996 108.666 99.4321 106.824C99.4506 105.794 99.7563 105.344 100.456 105.34C101.173 105.335 101.511 105.836 101.493 106.908C101.4 111.909 101.308 116.915 101.21 121.917C101.21 122.088 101.21 122.26 101.21 122.682V122.673Z" fill="white"/>
<path d="M126.428 38.9393V0H137.83C142.174 0 145.379 0.593855 147.416 1.77229C149.454 2.95072 150.482 4.9921 150.482 7.89642C150.482 10.4481 149.639 12.6148 147.968 14.3871C146.282 16.1594 144.142 17.3656 141.53 18.0152C144.147 18.0152 146.407 18.6832 148.333 20.0148C150.709 21.6572 151.904 23.9862 151.904 26.9879C151.904 31.0707 150.204 34.2905 146.801 36.6566C145.323 37.6912 143.415 38.3593 141.081 38.6563C139.645 38.8558 137.566 38.9393 134.838 38.9393H126.432H126.428ZM131.42 2.11097V17.1522H133.907C135.523 17.1522 136.857 17.0826 137.913 16.9527C138.969 16.8274 140.034 16.498 141.132 16.0016C144.026 14.7118 145.476 12.4014 145.476 9.08413C145.476 6.53241 144.661 4.73228 143.045 3.68376C141.428 2.63523 139.039 2.11097 135.875 2.11097H131.42ZM131.42 19.3792V36.8144H137.084C139.881 36.8144 142.174 35.9932 143.943 34.3462C145.717 32.7038 146.615 30.5743 146.615 27.939C146.615 24.7795 145.518 22.5108 143.327 21.1329C141.442 19.9545 138.617 19.3606 134.88 19.3606H131.42V19.3745V19.3792Z" fill="#03036D"/>
<path d="M181.776 11.7241V39.1111L179.511 38.9394L177.247 39.1111V34.1932C175.389 37.7795 172.384 39.5657 168.234 39.5657C165.057 39.5657 162.709 38.7028 161.176 36.9722C159.643 35.2417 158.884 32.4487 158.884 28.5933V11.7798L161.148 11.9515L163.413 11.7241V27.2061C163.413 30.412 163.932 32.8199 164.974 34.3927C166.016 35.9794 167.785 36.7727 170.272 36.7727C172.759 36.7727 174.769 35.7381 175.936 33.6828C176.807 32.1518 177.242 30.1244 177.242 27.5587V11.7798L179.507 11.9515L181.771 11.7241H181.776Z" fill="#03036D"/>
<path d="M199.421 38.8976L187.963 11.7241L190.691 11.9515L193.363 11.7798C194.391 14.9393 195.6 18.3168 197.017 21.8753C198.439 25.4338 200.027 29.1454 201.81 33.0055C203.019 30.5233 204.483 27.1365 206.182 22.8264C207.576 19.3236 208.966 15.6399 210.318 11.7844L212.189 11.9561L214.004 11.7844C212.231 15.7976 210.068 20.6041 207.539 26.2133C205.191 31.442 203.153 36.0675 201.407 40.0761C199.101 45.379 197.188 49.9582 195.688 53.8136L193.761 53.5863L191.835 53.8136L199.439 38.9023H199.425L199.421 38.8976Z" fill="#03036D"/>
<path d="M11.9764 16.5444H22.04V25.5589H11.3419V30.0685H22.04V39.5656H0V1.55884H22.0447V10.9028H11.9625L11.9764 16.5444Z" fill="#A2232E"/>
<path d="M24.0684 39.7373H34.22L36.0216 36.0953H48.8269L50.6424 39.8115H60.5671L46.729 1.24805H38.3928L24.0684 39.7373Z" fill="#A2232E"/>
<path d="M80.9075 1.50319V10.9446H75.9011C75.9011 10.9446 73.2845 12.4617 76.1281 14.8417C78.967 17.2218 85.5897 21.7871 85.5897 29.3587C85.5897 36.9304 80.6528 39.8069 74.7526 39.8069H61.7481V29.7113H70.9272C70.9272 29.7113 74.6831 28.4494 71.0661 25.16L64.4573 19.1333C64.4573 19.1333 61.4609 15.0644 61.4609 10.6569C61.4609 6.24939 64.1054 1.40112 68.8987 1.40112C73.692 1.40112 80.977 1.44288 80.9029 1.51247V1.49855L80.9075 1.50319Z" fill="#A2232E"/>
<path d="M121.815 1.31764L109.501 21.8567V39.5192H97.7607V21.8567L85.4463 1.31764H98.7333L103.388 9.66873L108.181 1.24805L121.82 1.31764H121.815Z" fill="#A2232E"/>
<path d="M6.4101 21.0633H17.3908V19.6436H6.4101V6.83399H18.0206V5.41431H5.00684V35.2973H18.1642V33.8776H6.4101V21.0633Z" fill="white"/>
<path d="M30.0154 34.7033L31.3214 35.2415L32.4468 32.4625H52.0323L52.9585 34.759L54.2645 34.2208L42.2001 4.56519L30.0107 34.7033H30.0154ZM51.4533 31.0335H33.021L42.214 8.30926L51.4487 31.0335H51.4533Z" fill="white"/>
<path d="M46.5482 28.9458L42.4589 19.3931L37.8184 28.9458H46.5482ZM44.4132 27.5261H40.0691L42.3755 22.7753L44.4132 27.5261Z" fill="white"/>
<path d="M73.1878 18.2751C71.0945 16.6884 69.1262 15.1852 68.6029 13.3294C68.1814 11.8262 68.3203 10.5364 69.0104 9.50178C69.7282 8.42541 71.0065 7.78516 72.4283 7.78516H76.814V6.36548H72.4283C70.5294 6.36548 68.8159 7.24234 67.8433 8.70378C66.9171 10.091 66.704 11.7798 67.2552 13.7098C67.9035 16.0203 70.0663 17.6626 72.3449 19.3932C75.3691 21.6897 78.4905 24.0559 78.4905 28.1943C78.4905 28.2221 78.6434 31.3816 77.1845 32.9312C76.6658 33.4833 76.0036 33.7524 75.1607 33.7524H65.9121V35.1721H75.1607C76.3972 35.1721 77.4254 34.7453 78.2127 33.8962C80.0837 31.8966 79.8984 28.2685 79.8984 28.1572C79.8984 23.3507 76.3416 20.6458 73.1924 18.2472V18.2751H73.1878Z" fill="white"/>
<path d="M113.211 6.13808L112.044 5.34473L103.369 18.2286C97.7749 10.0492 94.8619 5.82259 94.6951 5.66949L93.667 6.63451C93.9773 7.0335 99.2476 14.7026 102.749 19.8199V35.3437H104.152V19.5926L113.206 6.13808H113.211Z" fill="white"/>
</g>
<defs>
<clipPath id="clip0_128_1575">
<rect width="214" height="135" fill="white"/>
</clipPath>
</defs>
</svg>
