<svg width="25" height="35" viewBox="0 0 25 35" fill="none" xmlns="http://www.w3.org/2000/svg">
<path d="M12.6109 0C5.84834 0 0.378906 5.46943 0.378906 12.232C0.378906 21.4059 12.6109 34.9484 12.6109 34.9484C12.6109 34.9484 24.8428 21.4059 24.8428 12.232C24.8428 5.46943 19.3734 0 12.6109 0ZM12.6109 16.6005C11.4522 16.6005 10.3411 16.1403 9.52182 15.321C8.70256 14.5017 8.2423 13.3906 8.2423 12.232C8.2423 11.0733 8.70256 9.96218 9.52182 9.14292C10.3411 8.32366 11.4522 7.8634 12.6109 7.8634C13.7695 7.8634 14.8806 8.32366 15.6999 9.14292C16.5192 9.96218 16.9794 11.0733 16.9794 12.232C16.9794 13.3906 16.5192 14.5017 15.6999 15.321C14.8806 16.1403 13.7695 16.6005 12.6109 16.6005Z" fill="#A2232E"/>
</svg>
