<svg width="1480" height="1411" viewBox="0 0 1480 1411" fill="none" xmlns="http://www.w3.org/2000/svg">
<g clip-path="url(#clip0_3452_628)">
<path d="M1308.1 1231.7H171.4C76.7 1231.7 0 1155 0 1060.4C0 965.7 76.7 889 171.4 889H1308.2C1402.8 889 1479.6 965.7 1479.6 1060.4C1479.5 1155 1402.8 1231.7 1308.1 1231.7Z" fill="#EDEDED"/>
<path d="M1324.8 630.8H196.8C111.3 630.8 42 561.5 42 476C42 390.5 111.3 321.2 196.8 321.2H1324.7C1410.2 321.2 1479.5 390.5 1479.5 476C1479.5 561.6 1410.2 630.8 1324.8 630.8Z" fill="#EDEDED"/>
<path d="M1198.3 273.8H454.5C406.5 273.8 367.6 234.9 367.6 186.9C367.6 138.9 406.5 100 454.5 100H1198.3C1246.3 100 1285.2 138.9 1285.2 186.9C1285.2 234.9 1246.3 273.8 1198.3 273.8Z" fill="#EDEDED"/>
<path d="M1350.6 889C1349.9 889 1349.2 889 1348.5 889H189.3C189.1 889 188.8 889 188.6 889C224 888.8 256 874.4 279.1 851.2C302.5 827.8 316.9 795.6 316.9 759.9C316.9 688.9 259.5 631.2 188.6 630.8C188.8 630.8 189.1 630.8 189.3 630.8H1348.5C1349.2 630.8 1347.8 630.8 1348.5 630.8C1313.7 631.3 1284.2 645.7 1261.3 668.6C1237.9 692 1223.5 724.2 1223.5 759.9C1223.5 830.5 1280.2 887.9 1350.6 889Z" fill="#EDEDED"/>
<path d="M861.3 1056.6H849.7C845.7 1056.6 842.5 1053.4 842.5 1049.4C842.5 1045.4 845.7 1042.2 849.7 1042.2H861.3C867.5 1042.2 873.7 1041.5 879.6 1040C883.5 1039.1 887.4 1041.4 888.3 1045.3C889.2 1049.2 886.9 1053.1 883 1054C875.9 1055.7 868.6 1056.6 861.3 1056.6ZM810 1056.6H778.2C774.2 1056.6 771 1053.4 771 1049.4C771 1045.4 774.2 1042.2 778.2 1042.2H810C814 1042.2 817.2 1045.4 817.2 1049.4C817.2 1053.4 814 1056.6 810 1056.6ZM738.6 1056.6H706.8C702.8 1056.6 699.6 1053.4 699.6 1049.4C699.6 1045.4 702.8 1042.2 706.8 1042.2H738.6C742.6 1042.2 745.8 1045.4 745.8 1049.4C745.8 1053.4 742.5 1056.6 738.6 1056.6ZM667.1 1056.6H635.3C631.3 1056.6 628.1 1053.4 628.1 1049.4C628.1 1045.4 631.3 1042.2 635.3 1042.2H667.1C671.1 1042.2 674.3 1045.4 674.3 1049.4C674.3 1053.4 671.1 1056.6 667.1 1056.6ZM595.6 1056.6H563.8C559.8 1056.6 556.6 1053.4 556.6 1049.4C556.6 1045.4 559.8 1042.2 563.8 1042.2H595.6C599.6 1042.2 602.8 1045.4 602.8 1049.4C602.8 1053.4 599.6 1056.6 595.6 1056.6ZM524.1 1056.6H492.3C488.3 1056.6 485.1 1053.4 485.1 1049.4C485.1 1045.4 488.3 1042.2 492.3 1042.2H524.1C528.1 1042.2 531.3 1045.4 531.3 1049.4C531.3 1053.4 528.1 1056.6 524.1 1056.6ZM452.7 1056.6H420.9C416.9 1056.6 413.7 1053.4 413.7 1049.4C413.7 1045.4 416.9 1042.2 420.9 1042.2H452.7C456.7 1042.2 459.9 1045.4 459.9 1049.4C459.9 1053.4 456.6 1056.6 452.7 1056.6ZM381.2 1056.6H349.4C345.4 1056.6 342.2 1053.4 342.2 1049.4C342.2 1045.4 345.4 1042.2 349.4 1042.2H381.2C385.2 1042.2 388.4 1045.4 388.4 1049.4C388.4 1053.4 385.2 1056.6 381.2 1056.6ZM309.7 1056.6H291.4C286.5 1056.6 281.6 1056.2 276.9 1055.5C273 1054.9 270.3 1051.2 270.9 1047.3C271.5 1043.4 275.2 1040.7 279.1 1041.3C283.1 1041.9 287.3 1042.3 291.4 1042.3H309.7C313.7 1042.3 316.9 1045.5 316.9 1049.5C316.9 1053.5 313.7 1056.6 309.7 1056.6ZM241.7 1040.5C240.2 1040.5 238.8 1040.1 237.5 1039.1C228.1 1032.3 220.2 1024 213.9 1014.3C211.7 1011 212.7 1006.5 216 1004.3C219.3 1002.1 223.8 1003.1 226 1006.4C231.3 1014.6 238 1021.7 245.9 1027.4C249.1 1029.7 249.8 1034.2 247.5 1037.4C246.1 1039.5 243.9 1040.5 241.7 1040.5ZM916.4 1036.4C914.4 1036.4 912.3 1035.5 910.9 1033.9C908.3 1030.9 908.7 1026.3 911.7 1023.8C919.1 1017.5 925.3 1009.9 929.9 1001.3C931.8 997.8 936.1 996.5 939.7 998.4C943.2 1000.3 944.5 1004.7 942.6 1008.2C937.1 1018.4 929.9 1027.3 921.1 1034.8C919.7 1035.8 918 1036.4 916.4 1036.4ZM206.8 980.6C203.2 980.6 200 977.9 199.7 974.2C199.4 971 199.2 967.7 199.2 964.4V941.7C199.2 937.7 202.4 934.5 206.4 934.5C210.4 934.5 213.6 937.7 213.6 941.7V964.4C213.6 967.2 213.7 969.9 214 972.7C214.4 976.7 211.6 980.2 207.6 980.6C207.3 980.5 207.1 980.6 206.8 980.6ZM946.3 973.8C946.2 973.8 946.2 973.8 946.1 973.8C942.1 973.7 939 970.4 939.1 966.4C939.1 965.7 939.1 965 939.1 964.3V934.8C939.1 930.8 942.3 927.6 946.3 927.6C950.3 927.6 953.5 930.8 953.5 934.8V964.3C953.5 965.1 953.5 966 953.5 966.8C953.4 970.7 950.2 973.8 946.3 973.8ZM206.3 909.1C202.3 909.1 199.1 905.9 199.1 901.9V870.1C199.1 866.1 202.3 862.9 206.3 862.9C210.3 862.9 213.5 866.1 213.5 870.1V901.9C213.5 905.9 210.3 909.1 206.3 909.1ZM946.4 902.3C942.4 902.3 939.2 899.1 939.2 895.1V863.3C939.2 859.3 942.4 856.1 946.4 856.1C950.4 856.1 953.6 859.3 953.6 863.3V895.1C953.6 899.1 950.3 902.3 946.4 902.3ZM206.3 837.6C202.3 837.6 199.1 834.4 199.1 830.4V798.6C199.1 794.6 202.3 791.4 206.3 791.4C210.3 791.4 213.5 794.6 213.5 798.6V830.4C213.5 834.4 210.3 837.6 206.3 837.6ZM946.4 830.9C942.4 830.9 939.2 827.7 939.2 823.7V791.9C939.2 787.9 942.4 784.7 946.4 784.7C950.4 784.7 953.6 787.9 953.6 791.9V823.7C953.6 827.6 950.3 830.9 946.4 830.9ZM206.3 766.2C202.3 766.2 199.1 763 199.1 759V727.2C199.1 723.2 202.3 720 206.3 720C210.3 720 213.5 723.2 213.5 727.2V759C213.5 762.9 210.3 766.2 206.3 766.2ZM946.4 759.4C942.4 759.4 939.2 756.2 939.2 752.2V720.4C939.2 716.4 942.4 713.2 946.4 713.2C950.4 713.2 953.6 716.4 953.6 720.4V752.2C953.6 756.2 950.3 759.4 946.4 759.4ZM206.3 694.7C202.3 694.7 199.1 691.5 199.1 687.5V655.7C199.1 651.7 202.3 648.5 206.3 648.5C210.3 648.5 213.5 651.7 213.5 655.7V687.5C213.5 691.5 210.3 694.7 206.3 694.7ZM946.4 687.9C942.4 687.9 939.2 684.7 939.2 680.7V649C939.2 645 942.4 641.8 946.4 641.8C950.4 641.8 953.6 645 953.6 649V680.8C953.6 684.7 950.3 687.9 946.4 687.9ZM206.3 623.2C202.3 623.2 199.1 620 199.1 616V584.2C199.1 580.2 202.3 577 206.3 577C210.3 577 213.5 580.2 213.5 584.2V616C213.5 620 210.3 623.2 206.3 623.2ZM946.4 616.5C942.4 616.5 939.2 613.3 939.2 609.3V577.5C939.2 573.5 942.4 570.3 946.4 570.3C950.4 570.3 953.6 573.5 953.6 577.5V609.3C953.6 613.2 950.3 616.5 946.4 616.5ZM206.3 551.7C202.3 551.7 199.1 548.5 199.1 544.5V512.7C199.1 508.7 202.3 505.5 206.3 505.5C210.3 505.5 213.5 508.7 213.5 512.7V544.5C213.5 548.5 210.3 551.7 206.3 551.7ZM946.4 545C942.4 545 939.2 541.8 939.2 537.8V506C939.2 502 942.4 498.8 946.4 498.8C950.4 498.8 953.6 502 953.6 506V537.8C953.6 541.8 950.3 545 946.4 545ZM206.3 480.3C202.3 480.3 199.1 477.1 199.1 473.1V441.3C199.1 437.3 202.3 434.1 206.3 434.1C210.3 434.1 213.5 437.3 213.5 441.3V473.1C213.5 477.1 210.3 480.3 206.3 480.3ZM946.4 473.5C942.4 473.5 939.2 470.3 939.2 466.3V434.5C939.2 430.5 942.4 427.3 946.4 427.3C950.4 427.3 953.6 430.5 953.6 434.5V466.3C953.6 470.3 950.3 473.5 946.4 473.5ZM206.3 408.8C202.3 408.8 199.1 405.6 199.1 401.6V369.8C199.1 365.8 202.3 362.6 206.3 362.6C210.3 362.6 213.5 365.8 213.5 369.8V401.6C213.5 405.6 210.3 408.8 206.3 408.8ZM946.4 402C942.4 402 939.2 398.8 939.2 394.8V362.8C939.2 358.8 942.4 355.6 946.4 355.6C950.4 355.6 953.6 358.8 953.6 362.8V394.8C953.6 398.8 950.3 402 946.4 402ZM206.3 337.3C202.3 337.3 199.1 334.1 199.1 330.1V298.3C199.1 294.3 202.3 291.1 206.3 291.1C210.3 291.1 213.5 294.3 213.5 298.3V330.1C213.5 334.1 210.3 337.3 206.3 337.3ZM933.8 333.1C931.6 333.1 929.5 332.1 928.1 330.3C926.7 328.4 925.1 326.6 923.4 324.9L906.7 308.2C903.9 305.4 903.9 300.8 906.7 298C909.5 295.2 914.1 295.2 916.9 298L933.6 314.7C935.7 316.8 937.7 319.1 939.6 321.5C942 324.7 941.4 329.2 938.3 331.6C936.8 332.6 935.3 333.1 933.8 333.1ZM883.6 282.2C881.8 282.2 879.9 281.5 878.5 280.1L856 257.6C853.2 254.8 853.2 250.2 856 247.4C858.8 244.6 863.4 244.6 866.2 247.4L888.7 269.9C891.5 272.7 891.5 277.3 888.7 280.1C887.3 281.5 885.5 282.2 883.6 282.2ZM207.4 265.9C207 265.9 206.7 265.9 206.3 265.8C202.4 265.2 199.7 261.5 200.3 257.6C202.1 246.2 206 235.3 211.8 225.3C213.8 221.9 218.2 220.7 221.6 222.7C225 224.7 226.2 229.1 224.2 232.5C219.3 240.9 216 250.1 214.5 259.7C213.9 263.4 210.9 265.9 207.4 265.9ZM833.1 231.6C831.3 231.6 829.4 230.9 828 229.5L808.4 209.9C807.6 209.1 806.7 208.3 805.8 207.5C802.8 204.9 802.5 200.3 805.1 197.3C807.7 194.3 812.3 194 815.3 196.6C816.4 197.6 817.5 198.6 818.5 199.6L838.1 219.2C840.9 222 840.9 226.6 838.1 229.4C836.8 230.9 834.9 231.6 833.1 231.6ZM245.2 207.7C242.8 207.7 240.5 206.5 239.2 204.4C237 201.1 238 196.6 241.3 194.4C251 188.1 261.7 183.7 273 181.4C276.9 180.6 280.7 183.1 281.5 187C282.3 190.9 279.8 194.7 275.9 195.5C266.4 197.4 257.4 201.1 249.2 206.4C247.9 207.4 246.5 207.7 245.2 207.7ZM774.6 194.2C774.4 194.2 774.3 194.2 774.1 194.2C772.8 194.1 771.5 194.1 770.2 194.1H742.8C738.8 194.1 735.6 190.9 735.6 186.9C735.6 182.9 738.8 179.7 742.8 179.7H770.2C771.8 179.7 773.5 179.8 775.1 179.9C779.1 180.2 782 183.6 781.8 187.6C781.5 191.3 778.3 194.2 774.6 194.2ZM703.1 194.1H671.3C667.3 194.1 664.1 190.9 664.1 186.9C664.1 182.9 667.3 179.7 671.3 179.7H703.1C707.1 179.7 710.3 182.9 710.3 186.9C710.3 190.8 707.1 194.1 703.1 194.1ZM631.6 194.1H599.8C595.8 194.1 592.6 190.9 592.6 186.9C592.6 182.9 595.8 179.7 599.8 179.7H631.6C635.6 179.7 638.8 182.9 638.8 186.9C638.8 190.8 635.6 194.1 631.6 194.1ZM560.1 194.1H528.3C524.3 194.1 521.1 190.9 521.1 186.9C521.1 182.9 524.3 179.7 528.3 179.7H560.1C564.1 179.7 567.3 182.9 567.3 186.9C567.3 190.8 564.1 194.1 560.1 194.1ZM488.7 194.1H456.9C452.9 194.1 449.7 190.9 449.7 186.9C449.7 182.9 452.9 179.7 456.9 179.7H488.7C492.7 179.7 495.9 182.9 495.9 186.9C495.9 190.8 492.6 194.1 488.7 194.1ZM417.2 194.1H385.4C381.4 194.1 378.2 190.9 378.2 186.9C378.2 182.9 381.4 179.7 385.4 179.7H417.2C421.2 179.7 424.4 182.9 424.4 186.9C424.4 190.8 421.2 194.1 417.2 194.1ZM345.7 194.1H314C310 194.1 306.8 190.9 306.8 186.9C306.8 182.9 310 179.7 314 179.7H345.8C349.8 179.7 353 182.9 353 186.9C352.9 190.8 349.7 194.1 345.7 194.1Z" fill="#B2B2B2"/>
<path d="M1100.8 1101.2L1093.7 1107.2L1056.2 1138.7L1033.1 1111.2L1029.7 1107.1L1026.3 1103L983.701 1052.3L980.301 1048.2L976.901 1044.1L939.601 999.6L936.201 995.5L932.801 991.4C934.301 990.4 935.701 989.4 937.201 988.4C943.701 983.8 949.901 979 956.101 973.9C962.301 968.8 968.101 963.4 973.701 957.8C975.001 956.5 976.201 955.3 977.401 954L980.801 958.1L984.201 962.2L1021.5 1006.7L1024.9 1010.8L1028.3 1014.9L1070.9 1065.6L1074.3 1069.7L1077.7 1073.7L1094.8 1094.1L1100.8 1101.2Z" fill="#C4C4C4"/>
<path d="M1219.5 1392.9L1013.5 1147.4C1006.2 1138.7 1007.4 1125.8 1016 1118.6L1088 1058.2C1096.7 1050.9 1109.6 1052.1 1116.8 1060.7L1322.8 1306.2C1339.8 1326.5 1337.2 1356.7 1316.9 1373.7L1287 1398.8C1266.7 1415.9 1236.5 1413.2 1219.5 1392.9Z" fill="#B2B2B2"/>
<path d="M1046.6 536.7C922.201 388.4 701.101 369.1 552.801 493.5C404.601 617.9 385.201 839 509.701 987.3C626.701 1126.7 829.001 1152.1 976.101 1051.3C977.601 1050.3 979.001 1049.3 980.501 1048.3C981.901 1047.3 983.401 1046.2 984.801 1045.2C991.201 1040.5 997.401 1035.6 1003.6 1030.5C1009.7 1025.4 1015.6 1020 1021.3 1014.6C1022.6 1013.4 1023.8 1012.2 1025.1 1010.9C1026.4 1009.7 1027.6 1008.4 1028.8 1007.1C1153.5 879.8 1163.6 676.1 1046.6 536.7ZM600.201 549.9C717.101 451.8 892.101 467.1 990.201 584C1080.8 692 1074.7 849.5 981.001 950.2C979.801 951.5 978.601 952.8 977.301 954.1C976.101 955.4 974.801 956.6 973.601 957.9C968.001 963.5 962.201 968.8 956.001 974C949.901 979.1 943.601 984 937.101 988.5C935.601 989.5 934.201 990.5 932.701 991.5C931.201 992.5 929.701 993.5 928.301 994.4C876.801 1027.8 816.101 1043.1 753.901 1037.6C680.201 1031.1 613.501 996.4 566.001 939.8C468.001 823 483.301 648 600.201 549.9Z" fill="#E6E6E6"/>
<path d="M1118.3 657.4C1104.3 611.9 1081.6 570.1 1050.7 533.3C1019.8 496.5 982.7 466.9 940.3 445.2C899.3 424.3 855.2 411.6 809.2 407.6C763.2 403.6 717.5 408.4 673.6 421.9C628.1 435.9 586.3 458.6 549.5 489.5C512.7 520.4 483 557.5 461.4 599.9C440.5 640.9 427.8 685 423.8 731C419.8 777 424.6 822.7 438.1 866.6C452.1 912.1 474.8 953.9 505.7 990.7C536.6 1027.5 573.7 1057.1 616.1 1078.8C657.1 1099.7 701.2 1112.4 747.2 1116.4C757.7 1117.3 768.2 1117.8 778.6 1117.8C813.9 1117.8 848.9 1112.6 882.8 1102.1C917.4 1091.5 949.8 1075.8 979.5 1055.4C981 1054.4 982.4 1053.4 983.8 1052.3C985.2 1051.3 986.7 1050.3 988.1 1049.2C994.5 1044.5 1000.7 1039.6 1006.8 1034.5C1012.9 1029.4 1018.8 1024.1 1024.5 1018.6C1025.8 1017.4 1027.1 1016.1 1028.3 1014.9C1029.6 1013.7 1030.8 1012.4 1032 1011.1C1057.3 985.4 1078.4 956.2 1094.8 924C1115.7 883 1128.4 838.9 1132.4 792.9C1136.6 747 1131.8 701.3 1118.3 657.4ZM1122 792.1C1115 872.4 1080.9 946.2 1025.3 1003.1C1024.1 1004.4 1022.8 1005.6 1021.5 1006.8C1020.2 1008.1 1019 1009.3 1017.7 1010.5C1012 1016 1006.1 1021.3 1000 1026.4C993.9 1031.5 987.6 1036.4 981.2 1041.1C979.8 1042.1 978.4 1043.2 976.9 1044.2C975.5 1045.2 974 1046.2 972.5 1047.2C913.7 1087.4 845.9 1107 778.3 1107C679.7 1107 581.8 1065.1 513.6 983.8C391.2 838 410.3 619.8 556.2 497.5C618.9 444.9 696.6 416.7 777.5 416.7C787.7 416.7 797.9 417.1 808.2 418C900.1 426 983.3 469.4 1042.6 540C1101.9 610.7 1130.1 700.2 1122 792.1Z" fill="#B2B2B2"/>
<path d="M994.201 580.7C894.001 461.4 716.101 445.8 596.801 545.9C477.501 646 461.901 824 562.001 943.3C654.701 1053.7 813.901 1075.3 931.801 998.599C933.301 997.599 934.801 996.599 936.201 995.599C937.701 994.599 939.101 993.599 940.601 992.599C947.001 988.099 953.301 983.2 959.501 978.1C965.601 973 971.501 967.6 977.101 962C978.401 960.7 979.601 959.5 980.801 958.2C982.001 956.9 983.301 955.6 984.501 954.3C1080.5 851.7 1086.9 691.1 994.201 580.7ZM981.001 950.3C979.801 951.6 978.601 952.9 977.301 954.2C976.101 955.5 974.801 956.7 973.601 958C968.001 963.6 962.201 968.9 956.001 974.1C949.901 979.2 943.601 984.1 937.101 988.6C935.601 989.6 934.201 990.6 932.701 991.6C931.201 992.6 929.701 993.6 928.301 994.5C876.801 1027.9 816.101 1043.2 753.901 1037.7C680.201 1031.2 613.501 996.5 566.001 939.9C468.001 823 483.301 648 600.201 549.9C717.101 451.8 892.101 467.1 990.201 584C1080.8 692.1 1074.7 849.6 981.001 950.3Z" fill="#FCFCFC"/>
<path d="M998.301 577.3C949.001 518.5 879.701 482.4 803.201 475.7C726.701 469 652.201 492.5 593.401 541.8C534.601 591.1 498.501 660.4 491.801 736.9C485.101 813.4 508.601 887.9 557.901 946.7C607.201 1005.5 676.501 1041.6 753.001 1048.3C761.601 1049 770.101 1049.4 778.601 1049.4C834.501 1049.4 888.601 1033.3 935.201 1002.7C936.701 1001.7 938.201 1000.8 939.601 999.7C941.101 998.7 942.501 997.7 944.001 996.7C950.501 992.1 956.701 987.3 962.901 982.1C969.101 976.9 974.901 971.6 980.501 966.1C981.801 964.9 983.001 963.6 984.201 962.3C985.501 961 986.701 959.7 987.901 958.5C1031.9 911.7 1058.7 852 1064.4 787C1071.1 710.6 1047.6 636.1 998.301 577.3ZM754.001 1037.8C680.301 1031.3 613.601 996.6 566.101 940C468.001 823 483.301 648 600.201 549.9C717.101 451.8 892.101 467.1 990.201 584C1080.8 692 1074.7 849.5 981.001 950.2C979.801 951.5 978.601 952.8 977.301 954.1C976.101 955.4 974.801 956.6 973.601 957.9C968.001 963.5 962.201 968.8 956.001 974C949.901 979.1 943.601 984 937.101 988.5C935.601 989.5 934.201 990.5 932.701 991.5C931.201 992.5 929.701 993.5 928.301 994.4C876.901 1027.9 816.101 1043.2 754.001 1037.8Z" fill="#B2B2B2"/>
<path d="M981.001 950.3C979.801 951.6 978.601 952.9 977.301 954.2C976.101 955.5 974.801 956.7 973.601 958C968.001 963.6 962.201 968.9 956.001 974.1C949.901 979.2 943.601 984.1 937.101 988.6C935.601 989.6 934.201 990.6 932.701 991.6C931.201 992.6 929.701 993.6 928.301 994.5C876.801 1027.9 816.101 1043.2 753.901 1037.7C680.201 1031.2 613.501 996.5 566.001 939.9C468.001 823 483.301 648 600.201 549.9C717.101 451.8 892.101 467.1 990.201 584C1080.8 692.1 1074.7 849.6 981.001 950.3Z" fill="white"/>
<path d="M1268.6 1304.3C1266 1304.3 1263.4 1303.2 1261.6 1301.1L1093.8 1107.3C1090.5 1103.4 1090.9 1097.6 1094.7 1094.2C1098.6 1090.9 1104.4 1091.3 1107.8 1095.1L1275.6 1288.9C1278.9 1292.8 1278.5 1298.6 1274.7 1302C1272.9 1303.5 1270.7 1304.3 1268.6 1304.3Z" fill="white"/>
<path d="M524.3 569.8C522.8 569.8 521.4 569.3 520.1 568.4C517.2 566.1 516.6 561.8 518.9 558.9C540.6 531.2 566.6 507.2 596.1 487.7C625.2 468.5 656.9 454 690.5 444.7C760.4 425.4 833 429.4 900.5 456.4C904 457.8 905.7 461.7 904.3 465.2C902.9 468.7 899 470.4 895.5 469C766 417.2 615.5 457.6 529.6 567.3C528.3 568.9 526.3 569.8 524.3 569.8Z" fill="white"/>
<path d="M478.8 649C478 649 477.1 648.8 476.3 648.5C472.8 647.1 471.1 643.2 472.5 639.7C479.5 622.1 488.1 605.1 498 589.1C500 585.9 504.1 584.9 507.3 586.9C510.5 588.9 511.5 593 509.5 596.2C500 611.6 491.8 627.9 485.1 644.8C484 647.4 481.4 649 478.8 649Z" fill="white"/>
<path d="M208.7 129.6C204.7 129.6 201.5 126.4 201.5 122.4V7.2C201.5 3.2 204.7 0 208.7 0C212.7 0 215.9 3.2 215.9 7.2V122.5C215.8 126.4 212.6 129.6 208.7 129.6Z" fill="#B2B2B2"/>
<path d="M158.899 150.2C157.099 150.2 155.199 149.5 153.799 148.1L72.2992 66.5998C69.4992 63.7998 69.4992 59.1998 72.2992 56.3998C75.0992 53.5998 79.6992 53.5998 82.4992 56.3998L163.999 138C166.799 140.8 166.799 145.4 163.999 148.2C162.599 149.5 160.799 150.2 158.899 150.2Z" fill="#B2B2B2"/>
<path d="M138.3 200H23.1004C19.1004 200 15.9004 196.8 15.9004 192.8C15.9004 188.8 19.1004 185.6 23.1004 185.6H138.4C142.4 185.6 145.6 188.8 145.6 192.8C145.5 196.8 142.3 200 138.3 200Z" fill="#B2B2B2"/>
<path d="M780.699 829.1C767.699 829.1 760.299 820.5 758.399 803.2L755.699 762.3C755.099 753.8 756.799 747.2 760.899 742.5C764.999 737.8 771.099 734.4 779.299 732.3C792.599 729 802.899 723.6 810.199 716.2C817.499 708.8 821.099 699 821.099 686.9C821.099 673.6 817.499 663.1 810.399 655.3C803.299 647.6 793.199 643.7 780.199 643.7C763.799 643.7 751.899 649.9 744.299 662.3C738.499 670.8 733.399 676.2 728.899 678.7C724.399 681.1 718.299 681.7 710.699 680.5C702.199 679 695.799 675.4 691.399 669.8C686.999 664.2 686.799 657.3 690.699 649.1C698.599 633.1 710.299 620.3 725.899 610.9C741.499 601.5 759.599 596.8 780.199 596.8C798.999 596.8 815.599 600.4 829.899 607.5C844.299 614.6 855.599 624.9 863.699 638.4C871.899 651.9 875.999 668 875.999 686.8C875.999 708.3 869.399 725.7 856.199 739C842.999 752.3 825.499 761.7 803.699 767.2L801.899 803.1C800.499 820.5 793.399 829.1 780.699 829.1ZM780.299 926.8C770.899 926.8 762.799 923.5 755.999 916.8C749.199 910.1 745.799 902.1 745.799 892.7C745.799 883 749.199 874.8 755.999 868.2C762.799 861.5 770.899 858.2 780.299 858.2C789.999 858.2 798.199 861.5 805.099 868.2C811.899 874.9 815.299 883 815.299 892.7C815.299 902.1 811.899 910.1 805.099 916.8C798.199 923.5 789.899 926.8 780.299 926.8Z" fill="#B2B2B2"/>
</g>
<defs>
<clipPath id="clip0_3452_628">
<rect width="1479.5" height="1410.1" fill="white"/>
</clipPath>
</defs>
</svg>
