<svg width="80" height="80" viewBox="0 0 80 80" fill="none" xmlns="http://www.w3.org/2000/svg">
<g clip-path="url(#clip0_2_873)">
<path d="M58.3332 56.0666L66.4665 60.7666L63.9665 65.1L53.3332 58.9667V46.6666H58.3332V56.0666ZM79.9998 56.6666C79.9998 69.5667 69.5665 80 56.6665 80C43.7665 80 33.3332 69.5667 33.3332 56.6666C33.3332 55.5333 33.4332 54.4333 33.5998 53.3333H6.6665V13.3333H66.6665V35.6C74.5332 39.3666 79.9998 47.3666 79.9998 56.6666ZM35.5998 46.6666C36.1998 45.4666 36.8332 44.3333 37.5998 43.2333C37.2998 43.3333 36.9998 43.3333 36.6665 43.3333C31.1332 43.3333 26.6665 38.8666 26.6665 33.3333C26.6665 27.8 31.1332 23.3333 36.6665 23.3333C42.1998 23.3333 46.6665 27.8 46.6665 33.3333C46.6665 34.1666 46.5332 35 46.3332 35.7666C49.4665 34.2333 52.9665 33.3333 56.6665 33.3333C57.7998 33.3333 58.8998 33.4333 59.9998 33.6V26.6666C58.2317 26.6666 56.536 25.9643 55.2858 24.714C54.0355 23.4638 53.3332 21.7681 53.3332 20H19.9998C19.9998 23.7 17.0332 26.6666 13.3332 26.6666V40C15.1013 40 16.797 40.7024 18.0472 41.9526C19.2975 43.2028 19.9998 44.8985 19.9998 46.6666H35.5998ZM73.3332 56.6666C73.3332 47.4666 65.8665 40 56.6665 40C47.4665 40 39.9998 47.4666 39.9998 56.6666C39.9998 65.8666 47.4665 73.3333 56.6665 73.3333C65.8665 73.3333 73.3332 65.8666 73.3332 56.6666Z" fill="#A2232E"/>
</g>
<defs>
<clipPath id="clip0_2_873">
<rect width="80" height="80" fill="white"/>
</clipPath>
</defs>
</svg>
