<svg width="80" height="80" viewBox="0 0 80 80" fill="none" xmlns="http://www.w3.org/2000/svg">
<g clip-path="url(#clip0_2_866)">
<path d="M52.5 0.078125L80 13.8281V44.4922L75 41.9922V19.4141L55 29.4141V39.4922L50 41.9922V29.4141L30 19.4141V28.2812L25 25.7812V13.8281L52.5 0.078125ZM52.5 25.0781L59.4141 21.6016L41.3281 11.25L33.0859 15.3906L52.5 25.0781ZM64.8047 18.9453L71.9141 15.3906L52.5 5.66406L46.6797 8.59375L64.8047 18.9453ZM45 44.4922L40 46.9922V46.9531L25 54.4531V72.2266L40 64.6875V70.3125L22.5 79.0625L0 67.7734V41.3672L22.5 30.1172L45 41.3672V44.4922ZM20 72.2266V54.4531L5 46.9531V64.6875L20 72.2266ZM22.5 50.1172L36.9141 42.9297L22.5 35.7031L8.08594 42.9297L22.5 50.1172ZM45 50.0781L62.5 41.3281L80 50.0781V70.6641L62.5 79.4141L45 70.6641V50.0781ZM60 72.5781V60.6641L50 55.6641V67.5781L60 72.5781ZM75 67.5781V55.6641L65 60.6641V72.5781L75 67.5781ZM62.5 56.3281L71.9141 51.6016L62.5 46.9141L53.0859 51.6016L62.5 56.3281Z" fill="#A2232E"/>
</g>
<defs>
<clipPath id="clip0_2_866">
<rect width="80" height="80" fill="white"/>
</clipPath>
</defs>
</svg>
