<svg width="72" height="67" viewBox="0 0 72 67" fill="none" xmlns="http://www.w3.org/2000/svg">
<path d="M69.298 21.6628L64.15 7.65048C64.141 7.6263 64.1318 7.60212 64.1215 7.57818C61.9017 2.18151 58.6285 1 57.5548 1C57.437 1 57.3205 1.01013 57.2076 1.03016H14.4157C13.1585 1.03016 11.7787 1.65467 10.5305 2.78886C9.27998 3.9252 8.25504 5.486 7.56621 7.30415C3.7194 17.0948 1.52029 23.4911 1.03024 26.3158C0.996728 26.5093 0.991382 26.7062 1.01389 26.9016L1.06137 27.3058C1.03535 27.499 1 27.7631 1 28.0655C1 32.6041 3.67703 36.2411 7.65798 37.6668V57.6666C7.65798 61.8577 11.2071 66 15.3427 66H56.6545C60.7903 66 64.3246 61.8577 64.3246 57.6666V37.6668C68.2178 36.1939 70.8296 32.5405 70.8296 28.0658C70.8296 27.9053 70.8168 27.7666 70.8039 27.6578C70.9913 26.0458 70.5191 24.1741 69.298 21.6628ZM55.9913 62.6665H15.9914C14.0528 62.6665 10.9914 60.3586 10.9914 57.6666V37.6668C14.1581 37.5496 17.4628 37.3036 19.1721 35.3393C19.5311 34.9269 19.8366 34.4958 20.0967 34.0559C20.2893 34.3205 20.4905 34.5777 20.7001 34.8264C22.6869 37.1859 25.1409 37.6667 27.6581 37.6667C30.4428 37.6667 32.9102 37.7048 34.7437 36.2287C35.1772 35.8793 35.568 35.4993 35.9148 35.0902C36.2618 35.4993 36.6524 35.8793 37.0861 36.2287C38.9195 37.7048 41.5397 37.6667 44.3247 37.6667C46.8249 37.6667 49.0763 37.4044 50.9898 35.4422C51.2853 35.1394 51.5637 34.8209 51.8238 34.4894C52.0236 34.7896 52.2488 35.0842 52.5016 35.3711C54.2519 37.3518 57.6516 37.5835 60.9912 37.6668V59.3334C60.9913 61.2996 57.9304 62.6665 55.9913 62.6665ZM69.3247 27.6666C70.363 27.7389 67.6467 27.5828 67.658 27.6666C67.6568 27.6591 67.6592 27.6744 67.658 27.6666C67.6309 31.1643 64.0303 34.4508 60.607 34.4508C58.2528 34.4508 56.5322 33.8636 55.4922 32.7051C54.0577 31.1059 54.2422 28.7813 54.2487 28.7076C54.362 27.6135 53.5875 26.6278 52.5074 26.4951C51.4227 26.3617 50.4345 27.1381 50.2922 28.2353C49.903 31.2371 47.3404 34.4508 44.1458 34.4508C41.1296 34.4508 37.9071 33.1114 37.9071 29.351C37.9071 28.2374 37.0151 27.3339 35.9149 27.3339C34.8149 27.3339 33.9231 28.2374 33.9231 29.351C33.9231 33.1114 30.7004 34.4508 27.6845 34.4508C25.888 34.4508 24.4368 33.0461 23.7319 32.2088C22.5306 30.7822 21.6849 28.9156 21.4697 27.2188C21.4694 27.2154 21.4685 27.2098 21.4682 27.207C21.3252 26.1038 20.3264 25.3245 19.2369 25.4675C18.1472 25.6108 17.3774 26.6187 17.5169 27.722C17.5205 27.7527 17.8555 30.7627 16.1735 32.6828C15.1464 33.8558 13.4807 34.4508 11.223 34.4508C7.78302 34.4508 4.32484 31.1867 4.32484 27.6667C4.3147 27.7442 4.32516 27.631 4.32484 27.6667C3.71868 27.7982 4.33849 27.5644 4.32484 27.6667C4.34168 27.8079 4.46401 27.6369 4.32484 27.6667V26.0002C4.86364 23.3342 7.4762 18.279 10.9915 9.33353C10.9883 9.34151 10.9945 9.32539 10.9915 9.33353C12.0299 6.58556 13.9377 4.35117 14.3248 4.33354H57.658C58.1276 4.5644 59.7887 6.43051 60.9913 9.33353L65.9913 22.6666C65.9601 22.6034 66.0156 22.733 65.9913 22.6666C67.1098 24.947 67.7503 27.1386 67.658 27.6666C67.6317 27.817 67.6505 27.5143 67.658 27.6666H69.3247Z" fill="#A2232E"/>
<path d="M67.658 27.6666C67.6467 27.5828 70.363 27.7389 69.3247 27.6666H67.658ZM67.658 27.6666C67.6568 27.6591 67.6592 27.6744 67.658 27.6666ZM67.658 27.6666C67.6309 31.1643 64.0303 34.4508 60.607 34.4508C58.2528 34.4508 56.5322 33.8636 55.4922 32.7051C54.0577 31.1059 54.2422 28.7813 54.2487 28.7076C54.362 27.6135 53.5875 26.6278 52.5074 26.4951C51.4227 26.3617 50.4345 27.1381 50.2922 28.2353C49.903 31.2371 47.3404 34.4508 44.1458 34.4508C41.1296 34.4508 37.9071 33.1114 37.9071 29.351C37.9071 28.2374 37.0151 27.3339 35.9149 27.3339C34.8149 27.3339 33.9231 28.2374 33.9231 29.351C33.9231 33.1114 30.7004 34.4508 27.6845 34.4508C25.888 34.4508 24.4368 33.0461 23.7319 32.2088C22.5306 30.7822 21.6849 28.9156 21.4697 27.2188C21.4694 27.2154 21.4685 27.2098 21.4682 27.207C21.3252 26.1038 20.3264 25.3245 19.2369 25.4675C18.1472 25.6108 17.3774 26.6187 17.5169 27.722C17.5205 27.7527 17.8555 30.7627 16.1735 32.6828C15.1464 33.8558 13.4807 34.4508 11.223 34.4508C7.78302 34.4508 4.32484 31.1867 4.32484 27.6667M67.658 27.6666C67.7503 27.1386 67.1098 24.947 65.9913 22.6666M67.658 27.6666C67.6317 27.817 67.6505 27.5143 67.658 27.6666ZM4.32484 27.6667C4.3147 27.7442 4.32516 27.631 4.32484 27.6667ZM4.32484 27.6667C3.71868 27.7982 4.33849 27.5644 4.32484 27.6667ZM4.32484 27.6667C4.34168 27.8079 4.46401 27.6369 4.32484 27.6667ZM4.32484 27.6667V26.0002C4.86364 23.3342 7.4762 18.279 10.9915 9.33353M10.9915 9.33353C10.9883 9.34151 10.9945 9.32539 10.9915 9.33353ZM10.9915 9.33353C12.0299 6.58556 13.9377 4.35117 14.3248 4.33354H57.658C58.1276 4.5644 59.7887 6.43051 60.9913 9.33353L65.9913 22.6666M65.9913 22.6666C65.9601 22.6034 66.0156 22.733 65.9913 22.6666ZM69.298 21.6628L64.15 7.65048C64.141 7.6263 64.1318 7.60212 64.1215 7.57818C61.9017 2.18151 58.6285 1 57.5548 1C57.437 1 57.3205 1.01013 57.2076 1.03016H14.4157C13.1585 1.03016 11.7787 1.65467 10.5305 2.78886C9.27998 3.9252 8.25504 5.486 7.56621 7.30415C3.7194 17.0948 1.52029 23.4911 1.03024 26.3158C0.996728 26.5093 0.991382 26.7062 1.01389 26.9016L1.06137 27.3058C1.03535 27.499 1 27.7631 1 28.0655C1 32.6041 3.67703 36.2411 7.65798 37.6668V57.6666C7.65798 61.8577 11.2071 66 15.3427 66H56.6545C60.7903 66 64.3246 61.8577 64.3246 57.6666V37.6668C68.2178 36.1939 70.8296 32.5405 70.8296 28.0658C70.8296 27.9053 70.8168 27.7666 70.8039 27.6578C70.9913 26.0458 70.5191 24.1741 69.298 21.6628ZM55.9913 62.6665H15.9914C14.0528 62.6665 10.9914 60.3586 10.9914 57.6666V37.6668C14.1581 37.5496 17.4628 37.3036 19.1721 35.3393C19.5311 34.9269 19.8366 34.4958 20.0967 34.0559C20.2893 34.3205 20.4905 34.5777 20.7001 34.8264C22.6869 37.1859 25.1409 37.6667 27.6581 37.6667C30.4428 37.6667 32.9102 37.7048 34.7437 36.2287C35.1772 35.8793 35.568 35.4993 35.9148 35.0902C36.2618 35.4993 36.6524 35.8793 37.0861 36.2287C38.9195 37.7048 41.5397 37.6667 44.3247 37.6667C46.8249 37.6667 49.0763 37.4044 50.9898 35.4422C51.2853 35.1394 51.5637 34.8209 51.8238 34.4894C52.0236 34.7896 52.2488 35.0842 52.5016 35.3711C54.2519 37.3518 57.6516 37.5835 60.9912 37.6668V59.3334C60.9913 61.2996 57.9304 62.6665 55.9913 62.6665Z" stroke="#A2232E" stroke-width="2"/>
</svg>
