<svg width="114" height="80" viewBox="0 0 114 80" fill="none" xmlns="http://www.w3.org/2000/svg">
<path d="M47.3332 53.3334V13.3334H40.6665V6.66669H50.6665C51.5506 6.66669 52.3984 7.01788 53.0235 7.643C53.6486 8.26812 53.9998 9.11597 53.9998 10V50H95.4598L102.127 23.3334H60.6665V16.6667H106.4C106.907 16.6667 107.407 16.7822 107.862 17.0045C108.317 17.2267 108.716 17.5499 109.028 17.9493C109.339 18.3488 109.556 18.814 109.661 19.3097C109.766 19.8054 109.756 20.3185 109.633 20.81L101.3 54.1434C101.119 54.8642 100.703 55.504 100.117 55.9612C99.5314 56.4183 98.8096 56.6667 98.0665 56.6667H50.6665C49.7824 56.6667 48.9346 56.3155 48.3095 55.6904C47.6844 55.0653 47.3332 54.2174 47.3332 53.3334ZM53.9998 76.6667C52.2317 76.6667 50.536 75.9643 49.2858 74.7141C48.0355 73.4638 47.3332 71.7681 47.3332 70C47.3332 68.2319 48.0355 66.5362 49.2858 65.286C50.536 64.0357 52.2317 63.3334 53.9998 63.3334C55.7679 63.3334 57.4636 64.0357 58.7139 65.286C59.9641 66.5362 60.6665 68.2319 60.6665 70C60.6665 71.7681 59.9641 73.4638 58.7139 74.7141C57.4636 75.9643 55.7679 76.6667 53.9998 76.6667ZM93.9998 76.6667C92.2317 76.6667 90.536 75.9643 89.2858 74.7141C88.0355 73.4638 87.3332 71.7681 87.3332 70C87.3332 68.2319 88.0355 66.5362 89.2858 65.286C90.536 64.0357 92.2317 63.3334 93.9998 63.3334C95.7679 63.3334 97.4636 64.0357 98.7139 65.286C99.9641 66.5362 100.667 68.2319 100.667 70C100.667 71.7681 99.9641 73.4638 98.7139 74.7141C97.4636 75.9643 95.7679 76.6667 93.9998 76.6667Z" fill="#A2232E"/>
<line x1="22.5" y1="22.5" x2="39.5" y2="22.5" stroke="#A2232E" stroke-width="5" stroke-linecap="round"/>
<line x1="20.5" y1="50.5" x2="37.5" y2="50.5" stroke="#A2232E" stroke-width="5" stroke-linecap="round"/>
<line x1="2.5" y1="38.5" x2="38.5" y2="38.5" stroke="#A2232E" stroke-width="5" stroke-linecap="round"/>
</svg>
