<svg width="75" height="65" viewBox="0 0 75 65" fill="none" xmlns="http://www.w3.org/2000/svg">
<path d="M41.7783 0C24.161 0 9.82927 14.1177 9.40122 31.6915V32.504H0L14.2445 47.9375L28.0927 32.504H17.5024V31.6915C17.9265 18.6003 28.6317 8.12896 41.7783 8.12896C55.1985 8.12896 66.078 19.0442 66.078 32.504C66.078 45.9637 55.1985 56.879 41.7783 56.879C36.604 56.882 31.5652 55.2247 27.403 52.1506L21.8305 58.1116C27.518 62.5818 34.5443 65.0081 41.7783 65C59.6731 65 74.1753 50.4543 74.1753 32.504C74.1753 14.5537 59.6731 0 41.7783 0ZM37.8149 12.6869V32.504C37.8195 33.5542 38.2365 34.5605 38.9762 35.3061L51.6591 47.989C52.7808 47.2637 53.839 46.4472 54.7783 45.5L45.7418 36.4674V12.6869H37.8149Z" fill="#A2232E"/>
</svg>
