<svg width="92" height="67" viewBox="0 0 92 67" fill="none" xmlns="http://www.w3.org/2000/svg">
<g clip-path="url(#clip0_2_989)">
<path d="M50.5083 53.1349H6.0147C4.6852 53.1333 3.4106 52.6034 2.4705 51.6613C1.5304 50.7193 1.00157 49.442 1 48.1098L1 6.03667C1.00157 4.70442 1.5304 3.42718 2.4705 2.48514C3.4106 1.54309 4.6852 1.01316 6.0147 1.0116H69.0237C70.3532 1.01316 71.6278 1.54309 72.5679 2.48514C73.508 3.42718 74.0368 4.70442 74.0384 6.03667V25.2185C74.0384 25.3756 73.9761 25.5263 73.8652 25.6375C73.7543 25.7486 73.6039 25.811 73.447 25.811C73.2902 25.811 73.1398 25.7486 73.0289 25.6375C72.918 25.5263 72.8557 25.3756 72.8557 25.2185V6.01889C72.8557 5.00048 72.452 4.02379 71.7333 3.30366C71.0147 2.58354 70.04 2.17898 69.0237 2.17898H6.0147C4.99839 2.17898 4.02371 2.58354 3.30508 3.30366C2.58644 4.02379 2.18271 5.00048 2.18271 6.01889V48.092C2.18271 48.5963 2.28183 49.0956 2.4744 49.5615C2.66698 50.0274 2.94924 50.4507 3.30508 50.8072C3.66091 51.1638 4.08334 51.4467 4.54826 51.6396C5.01318 51.8326 5.51148 51.9319 6.0147 51.9319H50.5024C50.6616 51.9311 50.8146 51.9938 50.9277 52.106C51.0408 52.2182 51.1048 52.3709 51.1056 52.5304C51.1064 52.6899 51.0439 52.8432 50.9319 52.9566C50.8199 53.07 50.6675 53.1341 50.5083 53.1349ZM44.6066 65.9938H30.4141C30.0323 65.9944 29.6547 65.9143 29.3059 65.7588C28.9572 65.6032 28.6451 65.3757 28.39 65.091C28.135 64.8064 27.9427 64.471 27.8258 64.1068C27.7089 63.7427 27.67 63.3579 27.7116 62.9776V62.8946L29.7163 55.12C29.7547 54.9676 29.852 54.8366 29.9867 54.7561C30.1215 54.6755 30.2826 54.6519 30.4348 54.6904C30.5869 54.7289 30.7175 54.8264 30.7979 54.9614C30.8783 55.0964 30.9019 55.2579 30.8635 55.4104L28.9238 63.1139C28.9058 63.3256 28.9319 63.5388 29.0004 63.7399C29.0689 63.941 29.1783 64.1257 29.3217 64.2823C29.4651 64.4388 29.6394 64.5638 29.8336 64.6493C30.0277 64.7348 30.2375 64.779 30.4495 64.779H44.6421C44.8541 64.779 45.0639 64.7348 45.258 64.6493C45.4522 64.5638 45.6265 64.4388 45.7699 64.2823C45.9133 64.1257 46.0228 63.941 46.0912 63.7399C46.1597 63.5388 46.1858 63.3256 46.1678 63.1139L44.2281 55.4104C44.1897 55.2579 44.2133 55.0964 44.2937 54.9614C44.3741 54.8264 44.5047 54.7289 44.6569 54.6904C44.809 54.6519 44.9702 54.6755 45.1049 54.7561C45.2397 54.8366 45.3369 54.9676 45.3754 55.12L47.3446 62.9717C47.3874 63.3554 47.3483 63.7439 47.2297 64.1113C47.1111 64.4787 46.9158 64.8166 46.6568 65.1024C46.3978 65.3883 46.081 65.6157 45.7275 65.7694C45.374 65.9231 44.9919 65.9996 44.6066 65.9938Z" fill="#A2232E" stroke="#A2232E" stroke-width="2"/>
<path d="M47.2684 48.2166H9.61079C9.05864 48.2166 8.5119 48.1076 8.00178 47.8959C7.49167 47.6842 7.02816 47.3738 6.63773 46.9826C6.2473 46.5913 5.9376 46.1269 5.7263 45.6157C5.515 45.1045 5.40625 44.5567 5.40625 44.0034V9.7523C5.40625 9.19901 5.515 8.65114 5.7263 8.13996C5.9376 7.62879 6.2473 7.16433 6.63773 6.77309C7.02816 6.38186 7.49167 6.07151 8.00178 5.85978C8.5119 5.64804 9.05864 5.53906 9.61079 5.53906H65.2811C65.8332 5.53906 66.38 5.64804 66.8901 5.85978C67.4002 6.07151 67.8637 6.38186 68.2541 6.77309C68.6446 7.16433 68.9543 7.62879 69.1656 8.13996C69.3769 8.65114 69.4856 9.19901 69.4856 9.7523V29.3074C69.4856 29.386 69.4545 29.4614 69.399 29.5169C69.3436 29.5725 69.2683 29.6037 69.1899 29.6037C69.1115 29.6037 69.0363 29.5725 68.9809 29.5169C68.9254 29.4614 68.8943 29.386 68.8943 29.3074V9.7523C68.8943 8.79204 68.5136 7.87111 67.836 7.19211C67.1584 6.5131 66.2393 6.13164 65.2811 6.13164H9.61079C8.65252 6.13164 7.73349 6.5131 7.05588 7.19211C6.37828 7.87111 5.99761 8.79204 5.99761 9.7523V44.0093C5.99761 44.9696 6.37828 45.8905 7.05588 46.5695C7.73349 47.2485 8.65252 47.63 9.61079 47.63H47.2979C47.3684 47.643 47.4317 47.6813 47.4762 47.7376C47.5206 47.7939 47.5431 47.8645 47.5395 47.9363C47.5359 48.008 47.5064 48.0759 47.4565 48.1275C47.4066 48.1791 47.3398 48.2107 47.2684 48.2166Z" fill="#A2232E" stroke="#A2232E" stroke-width="2"/>
<path d="M66.7217 45.7547L63.0437 49.4429L59.3819 45.7735C60.4851 46.405 61.7429 46.7453 63.0355 46.7453C64.3408 46.7453 65.6107 46.3982 66.7217 45.7547Z" stroke="#A2232E" stroke-width="11"/>
</g>
<defs>
<clipPath id="clip0_2_989">
<rect width="92" height="67" fill="white"/>
</clipPath>
</defs>
</svg>
