<svg width="72" height="67" viewBox="0 0 72 67" fill="none" xmlns="http://www.w3.org/2000/svg">
<path d="M61.1092 66H13.7791C9.36165 66 5.73301 62.3714 5.73301 57.9539V50.2233C5.73301 49.2767 6.36408 48.6456 7.31068 48.6456C8.25728 48.6456 8.88835 49.2767 8.88835 50.2233V57.9539C8.88835 60.6359 11.0971 62.8447 13.7791 62.8447H61.1092C63.7913 62.8447 66 61.267 66 59.5316V54.6408C66 53.6942 66.6311 53.0631 67.5777 53.0631C68.5243 53.0631 69.1553 53.6942 69.1553 54.6408V59.5316C68.9976 63.0024 65.5267 66 61.1092 66ZM67.4199 38.8641C66.4733 38.8641 65.8422 38.233 65.8422 37.2864V9.04612C65.8422 6.36408 63.6335 4.15534 60.9515 4.15534H13.6214C10.9393 4.15534 8.73058 6.36408 8.73058 9.04612V18.1966C8.73058 19.1432 8.09951 19.7743 7.15291 19.7743C6.20631 19.7743 5.57524 19.1432 5.57524 18.1966V9.04612C5.57524 4.62864 9.20388 1 13.6214 1H60.9515C65.3689 1 68.9976 4.62864 68.9976 9.04612V37.2864C68.9976 38.233 68.3665 38.8641 67.4199 38.8641ZM12.0437 23.5607H2.57767C1.78883 23.5607 1 24.3495 1 25.1383C1 26.085 1.78883 26.716 2.57767 26.716H12.0437C12.9903 26.716 13.6214 26.085 13.6214 25.1383C13.6214 24.1917 12.9903 23.5607 12.0437 23.5607ZM12.3592 32.3956H2.8932C2.10437 32.3956 1.31553 33.0267 1.31553 33.9733C1.31553 34.9199 2.10437 35.551 2.8932 35.551H12.3592C13.3058 35.551 13.9369 34.9199 13.9369 33.9733C13.9369 33.0267 13.1481 32.3956 12.3592 32.3956ZM12.3592 41.2306H2.8932C2.10437 41.2306 1.31553 41.8616 1.31553 42.8083C1.31553 43.7549 2.10437 44.3859 2.8932 44.3859H12.3592C13.3058 44.3859 13.9369 43.7549 13.9369 42.8083C13.9369 41.8616 13.1481 41.2306 12.3592 41.2306Z" fill="#A2232E" stroke="#A2232E" stroke-width="2"/>
<path d="M37.4441 36.0242C32.08 36.0242 27.8203 31.7645 27.8203 26.4005C27.8203 21.0364 32.08 16.7767 37.4441 16.7767C42.8082 16.7767 47.0679 21.0364 47.0679 26.4005C47.0679 31.7645 42.6504 36.0242 37.4441 36.0242ZM37.4441 19.932C33.8155 19.932 30.9757 22.9296 30.9757 26.4005C30.9757 29.8713 33.9732 32.8689 37.4441 32.8689C40.915 32.8689 43.9125 29.8713 43.9125 26.4005C43.9125 22.9296 40.915 19.932 37.4441 19.932Z" fill="#A2232E" stroke="#A2232E" stroke-width="2"/>
<path d="M21.6682 50.2233C20.7216 50.0655 19.9327 49.4344 20.0905 48.4878C21.0371 39.6529 28.2944 32.8689 37.2871 32.8689C46.1221 32.8689 53.5371 39.4951 54.4837 48.3301C54.6415 49.1189 54.0104 49.9077 53.0638 50.0655C52.1172 50.2233 51.4861 49.5922 51.3284 48.6456C50.5395 41.3883 44.5444 36.0242 37.2871 36.0242C30.0298 36.0242 23.8769 41.5461 23.2459 48.8034C23.2459 49.5922 22.6148 50.2233 21.6682 50.2233Z" fill="#A2232E" stroke="#A2232E" stroke-width="2"/>
<path d="M65.3691 45.1747C65.3691 45.8024 65.6185 46.4043 66.0623 46.8481C66.5061 47.2919 67.108 47.5412 67.7356 47.5412C68.3633 47.5412 68.9652 47.2919 69.409 46.8481C69.8528 46.4043 70.1022 45.8024 70.1022 45.1747C70.1022 44.5471 69.8528 43.9452 69.409 43.5014C68.9652 43.0576 68.3633 42.8082 67.7356 42.8082C67.108 42.8082 66.5061 43.0576 66.0623 43.5014C65.6185 43.9452 65.3691 44.5471 65.3691 45.1747Z" fill="#A2232E" stroke="#A2232E" stroke-width="2"/>
</svg>
