<svg width="46" height="29" viewBox="0 0 46 29" fill="none" xmlns="http://www.w3.org/2000/svg">
<path d="M45.9995 0H-2.00049V29H45.9995V0Z" fill="white"/>
<path d="M45.227 24.2891H-1.18213V28.2652H45.227V24.2891Z" fill="#FCB316"/>
<path d="M45.227 0.777954H-1.18213V4.75411H45.227V0.777954Z" fill="#10357F"/>
<path d="M17.3631 9.07596L12.5904 19.9239H9.45406L7.09042 11.2801C6.95406 10.7615 6.81769 10.5454 6.4086 10.3293C5.68133 9.98356 4.54497 9.63781 3.49951 9.42171L3.59042 9.11918H8.63588C9.27224 9.11918 9.86315 9.50815 9.99951 10.2429L11.1813 16.4664L14.2722 9.07596H17.3631ZM29.6359 16.38C29.6359 13.5275 25.4541 13.3546 25.4995 12.0581C25.4995 11.6691 25.9086 11.2369 26.7722 11.1505C27.1813 11.1073 28.3632 11.064 29.6813 11.6259L30.1813 9.33527C29.4541 9.07596 28.545 8.85986 27.4086 8.85986C24.4995 8.85986 22.4086 10.3293 22.4086 12.447C22.4086 14.0029 23.8632 14.8673 24.9995 15.3859C26.1359 15.9046 26.545 16.2503 26.545 16.7257C26.545 17.4605 25.6359 17.763 24.7722 17.8062C23.2722 17.8494 22.4086 17.4172 21.7268 17.1147L21.1813 19.535C21.8632 19.8375 23.1359 20.0968 24.4541 20.0968C27.5904 20.0968 29.5904 18.6706 29.6359 16.38ZM37.3632 19.9239H40.0904L37.6813 9.07596H35.1359C34.5904 9.07596 34.0904 9.37849 33.8632 9.8539L29.4086 19.9239H32.4995L33.1359 18.2816H36.9086L37.3632 19.9239ZM34.045 16.0774L35.5904 12.0149L36.4995 16.0774H34.045ZM21.5904 9.07596L19.1359 19.9672H16.1813L18.6359 9.07596H21.5904Z" fill="#10357F"/>
</svg>
